<svg width="414" height="535" viewBox="0 0 414 535" fill="none" xmlns="http://www.w3.org/2000/svg">
<g clip-path="url(#clip0_216_126)">
<path d="M207 67.74C219.996 67.74 232.459 72.6238 241.648 81.3171C250.838 90.0103 256 101.801 256 114.095C256 126.389 250.838 138.18 241.648 146.873C232.459 155.566 219.996 160.45 207 160.45C194.004 160.45 181.541 155.566 172.352 146.873C163.162 138.18 158 126.389 158 114.095C158 101.801 163.162 90.0103 172.352 81.3171C181.541 72.6238 194.004 67.74 207 67.74ZM207 75.1568C196.084 75.1568 185.614 79.2592 177.895 86.5615C170.176 93.8639 165.84 103.768 165.84 114.095C165.84 124.422 170.176 134.326 177.895 141.628C185.614 148.931 196.084 153.033 207 153.033C217.916 153.033 228.386 148.931 236.105 141.628C243.824 134.326 248.16 124.422 248.16 114.095C248.16 103.768 243.824 93.8639 236.105 86.5615C228.386 79.2592 217.916 75.1568 207 75.1568Z" fill="#E5E5E5"/>
<mask id="mask0_216_126" style="mask-type:luminance" maskUnits="userSpaceOnUse" x="207" y="67" width="48" height="39">
<path d="M207 71.61C207 71.0958 207.113 70.5872 207.332 70.1166C207.551 69.6459 207.871 69.2235 208.271 68.8761C208.672 68.5287 209.145 68.2639 209.659 68.0985C210.174 67.9332 210.719 67.8709 211.261 67.9156C221.085 68.7268 230.421 72.3232 238.05 78.2347C245.679 84.1461 251.244 92.0975 254.02 101.049C254.172 101.543 254.215 102.061 254.145 102.571C254.075 103.081 253.894 103.571 253.613 104.011C253.332 104.451 252.957 104.831 252.512 105.127C252.068 105.423 251.563 105.628 251.03 105.729C250.068 105.911 249.07 105.747 248.23 105.267C247.391 104.787 246.772 104.027 246.496 103.137C244.165 95.6171 239.49 88.9379 233.082 83.9723C226.674 79.0067 218.831 75.9857 210.579 75.3043C209.602 75.2236 208.693 74.7995 208.03 74.1156C207.368 73.4317 207 72.5377 207 71.61Z" fill="white"/>
</mask>
<g mask="url(#mask0_216_126)">
<path d="M248.502 103.624C252.11 103.624 255.035 100.857 255.035 97.4438C255.035 94.0303 252.11 91.2632 248.502 91.2632C244.893 91.2632 241.968 94.0303 241.968 97.4438C241.968 100.857 244.893 103.624 248.502 103.624Z" fill="white"/>
</g>
<path d="M207 71.61C207 71.0958 207.113 70.5872 207.332 70.1166C207.551 69.6459 207.871 69.2235 208.271 68.8761C208.672 68.5287 209.145 68.2639 209.659 68.0985C210.174 67.9332 210.719 67.8709 211.261 67.9156C220.122 68.6473 228.605 71.647 235.801 76.593C242.998 81.539 248.635 88.2448 252.109 95.9912C252.321 96.4645 252.427 96.9745 252.42 97.4886C252.412 98.0027 252.292 98.5098 252.067 98.9777C251.841 99.4455 251.515 99.8639 251.11 100.206C250.704 100.549 250.228 100.808 249.711 100.966C248.779 101.253 247.766 101.199 246.874 100.814C245.982 100.429 245.274 99.7418 244.891 98.8878C241.973 92.3808 237.238 86.748 231.193 82.5933C225.149 78.4387 218.022 75.9189 210.579 75.3043C209.602 75.2236 208.693 74.7995 208.03 74.1156C207.368 73.4317 207 72.5377 207 71.61Z" fill="#8BC34A"/>
</g>
<rect x="172" y="110.09" width="70" height="8" fill="#4A90E2"/>
<rect x="172" y="110.09" width="70" height="8" fill="black" fill-opacity="0.2"/>
<g filter="url(#filter0_dd_216_126)">
<rect x="172" y="81.59" width="70" height="57" rx="28.5" fill="#4A90E2"/>
</g>
<g clip-path="url(#clip1_216_126)">
<rect x="206.99" y="87.6357" width="12.1421" height="12.1421" rx="1" transform="rotate(-135 206.99 87.6357)" fill="white" stroke="#E5E5E5" stroke-width="2"/>
</g>
<rect x="136.38" y="35" width="148" height="46" rx="9" fill="white"/>
<rect x="136.38" y="35" width="148" height="46" rx="9" stroke="#E5E5E5" stroke-width="2"/>
<path d="M151.047 51.6909V62.6H148.741V51.6909H151.047ZM162.579 51.6909V62.6H160.587L155.841 55.7339H155.761V62.6H153.455V51.6909H155.479L160.188 58.5517H160.284V51.6909H162.579ZM167.301 51.6909V62.6H164.995V51.6909H167.301ZM179.334 55.5101H177.001C176.959 55.2083 176.872 54.9402 176.74 54.7058C176.609 54.4679 176.44 54.2655 176.234 54.0986C176.028 53.9317 175.79 53.8038 175.52 53.715C175.254 53.6263 174.965 53.5819 174.652 53.5819C174.088 53.5819 173.596 53.7221 173.177 54.0027C172.758 54.2797 172.433 54.6845 172.202 55.2172C171.971 55.7463 171.856 56.389 171.856 57.1454C171.856 57.9231 171.971 58.5765 172.202 59.1057C172.436 59.6348 172.763 60.0343 173.182 60.3042C173.601 60.5741 174.086 60.709 174.636 60.709C174.945 60.709 175.231 60.6682 175.494 60.5865C175.76 60.5048 175.996 60.3858 176.202 60.2296C176.408 60.0698 176.579 59.8763 176.714 59.649C176.852 59.4217 176.948 59.1625 177.001 58.8713L179.334 58.8819C179.274 59.3826 179.123 59.8656 178.882 60.3308C178.644 60.7924 178.322 61.2062 177.918 61.5719C177.516 61.9341 177.037 62.2218 176.479 62.4348C175.925 62.6444 175.299 62.7491 174.599 62.7491C173.626 62.7491 172.756 62.529 171.989 62.0886C171.225 61.6483 170.622 61.0108 170.178 60.1763C169.737 59.3418 169.517 58.3315 169.517 57.1454C169.517 55.9558 169.741 54.9437 170.188 54.1092C170.636 53.2747 171.243 52.639 172.01 52.2022C172.777 51.7619 173.64 51.5417 174.599 51.5417C175.231 51.5417 175.817 51.6305 176.357 51.8081C176.9 51.9856 177.381 52.2449 177.8 52.5858C178.219 52.9231 178.56 53.3368 178.823 53.8269C179.089 54.3169 179.26 54.878 179.334 55.5101ZM183.805 51.6909V62.6H181.498V51.6909H183.805ZM196.237 57.1454C196.237 58.3351 196.012 59.3471 195.561 60.1817C195.113 61.0162 194.503 61.6536 193.728 62.0939C192.958 62.5307 192.091 62.7491 191.129 62.7491C190.16 62.7491 189.29 62.529 188.519 62.0886C187.748 61.6483 187.139 61.0108 186.692 60.1763C186.244 59.3418 186.021 58.3315 186.021 57.1454C186.021 55.9558 186.244 54.9437 186.692 54.1092C187.139 53.2747 187.748 52.639 188.519 52.2022C189.29 51.7619 190.16 51.5417 191.129 51.5417C192.091 51.5417 192.958 51.7619 193.728 52.2022C194.503 52.639 195.113 53.2747 195.561 54.1092C196.012 54.9437 196.237 55.9558 196.237 57.1454ZM193.899 57.1454C193.899 56.3748 193.783 55.725 193.553 55.1959C193.325 54.6667 193.004 54.2655 192.589 53.992C192.173 53.7186 191.687 53.5819 191.129 53.5819C190.571 53.5819 190.085 53.7186 189.669 53.992C189.254 54.2655 188.931 54.6667 188.7 55.1959C188.473 55.725 188.359 56.3748 188.359 57.1454C188.359 57.916 188.473 58.5659 188.7 59.095C188.931 59.6241 189.254 60.0254 189.669 60.2988C190.085 60.5723 190.571 60.709 191.129 60.709C191.687 60.709 192.173 60.5723 192.589 60.2988C193.004 60.0254 193.325 59.6241 193.553 59.095C193.783 58.5659 193.899 57.916 193.899 57.1454ZM206.305 62.6H202.438V51.6909H206.337C207.434 51.6909 208.379 51.9093 209.17 52.3461C209.962 52.7793 210.571 53.4025 210.998 54.2157C211.427 55.029 211.642 56.002 211.642 57.1348C211.642 58.2711 211.427 59.2477 210.998 60.0645C210.571 60.8812 209.959 61.508 209.16 61.9448C208.364 62.3816 207.413 62.6 206.305 62.6ZM204.744 60.6238H206.209C206.891 60.6238 207.464 60.503 207.929 60.2616C208.398 60.0165 208.75 59.6383 208.984 59.127C209.222 58.612 209.341 57.948 209.341 57.1348C209.341 56.3287 209.222 55.6699 208.984 55.1586C208.75 54.6472 208.4 54.2708 207.935 54.0293C207.469 53.7878 206.896 53.6671 206.214 53.6671H204.744V60.6238ZM213.861 62.6V51.6909H221.211V53.5925H216.167V56.1919H220.833V58.0936H216.167V60.6983H221.233V62.6H213.861ZM227.121 53.5925V51.6909H236.081V53.5925H232.741V62.6H230.461V53.5925H227.121ZM244.805 51.6909H247.111V58.7754C247.111 59.5709 246.921 60.2669 246.541 60.8635C246.165 61.4601 245.637 61.9253 244.959 62.2591C244.281 62.5893 243.491 62.7545 242.589 62.7545C241.683 62.7545 240.891 62.5893 240.213 62.2591C239.535 61.9253 239.007 61.4601 238.631 60.8635C238.255 60.2669 238.066 59.5709 238.066 58.7754V51.6909H240.373V58.5783C240.373 58.9938 240.463 59.3631 240.645 59.6863C240.829 60.0094 241.088 60.2633 241.422 60.448C241.756 60.6326 242.145 60.725 242.589 60.725C243.036 60.725 243.425 60.6326 243.755 60.448C244.089 60.2633 244.347 60.0094 244.528 59.6863C244.712 59.3631 244.805 58.9938 244.805 58.5783V51.6909ZM253.386 62.6H249.519V51.6909H253.418C254.515 51.6909 255.46 51.9093 256.252 52.3461C257.044 52.7793 257.653 53.4025 258.079 54.2157C258.508 55.029 258.723 56.002 258.723 57.1348C258.723 58.2711 258.508 59.2477 258.079 60.0645C257.653 60.8812 257.04 61.508 256.241 61.9448C255.446 62.3816 254.494 62.6 253.386 62.6ZM251.825 60.6238H253.29C253.972 60.6238 254.545 60.503 255.011 60.2616C255.479 60.0165 255.831 59.6383 256.065 59.127C256.303 58.612 256.422 57.948 256.422 57.1348C256.422 56.3287 256.303 55.6699 256.065 55.1586C255.831 54.6472 255.481 54.2708 255.016 54.0293C254.551 53.7878 253.977 53.6671 253.295 53.6671H251.825V60.6238ZM270.967 57.1454C270.967 58.3351 270.741 59.3471 270.29 60.1817C269.843 61.0162 269.232 61.6536 268.458 62.0939C267.687 62.5307 266.821 62.7491 265.858 62.7491C264.889 62.7491 264.019 62.529 263.248 62.0886C262.478 61.6483 261.869 61.0108 261.421 60.1763C260.974 59.3418 260.75 58.3315 260.75 57.1454C260.75 55.9558 260.974 54.9437 261.421 54.1092C261.869 53.2747 262.478 52.639 263.248 52.2022C264.019 51.7619 264.889 51.5417 265.858 51.5417C266.821 51.5417 267.687 51.7619 268.458 52.2022C269.232 52.639 269.843 53.2747 270.29 54.1092C270.741 54.9437 270.967 55.9558 270.967 57.1454ZM268.628 57.1454C268.628 56.3748 268.513 55.725 268.282 55.1959C268.055 54.6667 267.733 54.2655 267.318 53.992C266.902 53.7186 266.416 53.5819 265.858 53.5819C265.301 53.5819 264.814 53.7186 264.399 53.992C263.983 54.2655 263.66 54.6667 263.429 55.1959C263.202 55.725 263.089 56.3748 263.089 57.1454C263.089 57.916 263.202 58.5659 263.429 59.095C263.66 59.6241 263.983 60.0254 264.399 60.2988C264.814 60.5723 265.301 60.709 265.858 60.709C266.416 60.709 266.902 60.5723 267.318 60.2988C267.733 60.0254 268.055 59.6241 268.282 59.095C268.513 58.5659 268.628 57.916 268.628 57.1454Z" fill="#4A90E2"/>
<path d="M205.769 97.2531C205.874 97.2531 206.006 97.3012 206.12 97.4453C205.61 96.7807 206.691 97.0689 206.753 96.4363C207.368 96.0199 207.148 95.7477 207.324 95.7316L207.518 95.5875C207.14 95.7156 207.008 95.7396 206.902 95.7396C206.876 95.7396 206.85 95.7396 206.823 95.7396C206.797 95.7396 206.762 95.7396 206.727 95.7396C206.595 95.7396 206.375 95.7637 205.856 95.9078C204.67 95.9879 203.817 97.157 203.413 97.1891C203 97.3893 203.018 97.4293 203.114 97.4293C203.141 97.4293 203.176 97.4213 203.211 97.4213C203.246 97.4213 203.272 97.4133 203.299 97.4133C203.396 97.4133 203.369 97.4533 202.807 97.6936C202.938 97.7256 201.822 98.174 201.813 98.8787C201.778 99.151 201.901 99.3352 202.104 99.3352C202.279 99.3352 202.499 99.215 202.736 98.9107C203.527 98.0779 205.197 97.9979 205.918 97.4934C205.47 97.4613 205.558 97.2531 205.769 97.2531ZM201.752 97.5334C201.673 97.5334 201.778 97.4453 201.893 97.3572C202.016 97.2691 202.156 97.1811 202.156 97.1811C202.156 97.1811 202.156 97.1811 202.147 97.1891C202.622 97.0209 202.332 96.9809 202.587 96.8688C202.578 96.8688 202.578 96.8688 202.569 96.8688C202.517 96.8688 202.613 96.8047 202.701 96.7326C202.789 96.6686 202.868 96.5965 202.789 96.5965C202.745 96.5965 202.631 96.6205 202.438 96.6926C202.499 96.6125 202.736 96.5564 203.07 96.3883C202.587 96.5324 202.209 96.6205 202.165 96.6205C202.13 96.6205 202.332 96.5564 202.938 96.3883C202.965 96.3883 202.991 96.3963 203.009 96.3963C203.07 96.3963 203.097 96.3803 203.088 96.3643C203.079 96.3482 203.044 96.3402 202.982 96.3402C202.112 96.4043 201.462 96.9008 201.655 96.9648C201.77 96.9328 201.849 96.9168 201.901 96.9168C202.016 96.9168 201.963 97.0049 201.734 97.133C201.84 97.3572 199.977 97.9338 199.766 98.142C199.871 98.0859 199.941 98.0699 199.977 98.0699C200.117 98.0699 199.933 98.3182 199.748 98.4383C199.862 98.5344 199.95 98.5664 200.021 98.5664C200.205 98.5664 200.284 98.3342 200.442 98.2621C200.478 98.3262 200.513 98.3582 200.557 98.3582C200.706 98.3582 200.891 98.0219 201.04 97.8457C201.084 97.8857 201.137 97.9178 201.207 97.9178C201.348 97.9178 201.559 97.8137 201.893 97.5174C201.822 97.5254 201.77 97.5334 201.752 97.5334ZM199.73 99.0068C199.414 99.183 199.247 99.2551 199.177 99.2551C199.045 99.2551 199.221 99.0309 199.379 98.7986C199.537 98.5744 199.678 98.3502 199.476 98.3502C199.379 98.3502 199.203 98.3982 198.922 98.5264C198.157 98.9908 196.865 100.272 196.294 100.272C196.276 100.272 196.259 100.272 196.241 100.272C197.164 99.6555 196.892 98.4463 198.184 98.134C199.458 97.4693 200.328 97.6775 201.462 96.9168C201.128 97.0689 200.636 97.2371 200.521 97.2371C200.451 97.2371 200.557 97.157 201.014 96.9568C200.97 96.9648 200.935 96.9729 200.908 96.9729C200.601 96.9729 202.93 96.2121 203.044 96.1961C202.086 96.3162 200.539 97.0449 200.328 97.0449C200.302 97.0449 200.302 97.0369 200.302 97.0209C200.337 96.9969 200.337 96.9809 200.302 96.9809C200.188 96.9809 199.713 97.125 199.229 97.2691C198.755 97.4133 198.271 97.5654 198.166 97.5654C198.131 97.5654 198.131 97.5494 198.184 97.5174C194.035 99.6635 190.572 103.283 189.491 107.575C189.939 108.512 189.632 110.298 190.37 110.818C191.214 111.467 189.649 113.349 190.062 114.51C190.484 116.608 192.304 118.041 192.497 120.188C192.831 121.661 194.053 123.463 194.562 124.4C194.949 124.752 196.013 125.769 196.197 125.769C196.268 125.769 196.224 125.617 195.942 125.208C195.767 124.752 194.747 123.559 195.239 123.559C195.266 123.559 195.292 123.559 195.327 123.567C194.721 123.006 196.672 123.158 195.31 122.398C195.151 122.221 195.116 122.165 195.151 122.165C195.195 122.165 195.318 122.229 195.459 122.294C195.608 122.358 195.784 122.422 195.925 122.422C196.145 122.422 196.294 122.286 196.206 121.789C196.241 121.805 196.276 121.805 196.303 121.805C196.531 121.805 196.452 121.397 196.47 120.988C196.487 120.58 196.602 120.171 197.217 120.171C197.287 120.171 197.366 120.179 197.445 120.188C198.869 119.483 197.63 117.537 199.265 116.824C199.203 115.207 196.821 115.127 195.925 114.47C195.775 114.55 195.635 114.574 195.494 114.574C195.336 114.574 195.195 114.542 195.072 114.502C194.949 114.47 194.835 114.43 194.756 114.43C194.738 114.43 194.721 114.43 194.703 114.438C196.232 114.07 195.116 112.132 193.851 112.132C193.824 112.132 193.789 112.132 193.763 112.132C193.666 111.291 193.191 111.611 193.139 110.914C193.06 110.954 192.98 110.971 192.901 110.971C192.69 110.971 192.497 110.834 192.33 110.706C192.163 110.57 192.022 110.442 191.899 110.442C191.803 110.442 191.715 110.53 191.636 110.786C191.724 110.394 191.697 110.266 191.609 110.266C191.521 110.266 191.363 110.402 191.188 110.538C191.021 110.674 190.827 110.81 190.678 110.81C190.66 110.81 190.651 110.81 190.634 110.81C189.605 110.146 190.643 108.969 190.098 108.064C190.449 107.719 190.59 107.135 190.432 107.135C190.353 107.135 190.194 107.279 189.948 107.671C189.597 106.854 190.528 105.005 191.319 104.901C191.346 104.901 191.363 104.893 191.39 104.893C191.53 104.893 191.671 104.957 191.794 105.093C191.864 105.469 191.688 106.262 191.759 106.262C191.794 106.262 191.864 106.102 192.04 105.685C192.269 104.732 193.868 104.044 194.035 103.459C194.044 103.467 194.044 103.467 194.053 103.467C194.237 103.467 195.424 102.514 195.942 102.41C196.145 102.226 196.285 102.162 196.391 102.162C196.505 102.162 196.566 102.242 196.61 102.314C196.654 102.394 196.689 102.466 196.733 102.466C196.769 102.466 196.812 102.418 196.892 102.282C196.619 101.794 197.322 101.329 197.129 101.329C197.059 101.329 196.848 101.393 196.417 101.553C196.347 101.585 196.312 101.593 196.294 101.593C196.241 101.593 196.452 101.465 196.76 101.337C197.067 101.209 197.454 101.081 197.779 101.081C197.937 101.081 198.078 101.113 198.184 101.193C199.546 100.897 198.799 100.488 198.869 100.488C198.869 100.488 198.878 100.488 198.887 100.488C199.273 100.28 199.159 99.4953 199.73 99.0068ZM193.64 102.282C193.622 102.282 193.701 102.178 193.965 101.882C194.51 101.513 194.949 101.265 194.448 101.025C194.668 100.937 194.879 100.833 195.081 100.721C195.072 101.113 194.712 102.066 194.519 102.066C194.475 102.066 194.431 102.01 194.413 101.89C194.527 101.705 194.536 101.633 194.492 101.633C194.422 101.633 194.22 101.794 194.026 101.962C193.833 102.114 193.657 102.282 193.64 102.282ZM194.141 102.498C193.903 102.498 193.947 102.362 194.677 102.226C194.993 102.186 194.747 102.202 195.125 102.122C194.756 102.394 194.343 102.498 194.141 102.498ZM207.808 101.689C207.913 101.673 207.992 101.673 208.054 101.673C208.309 101.673 208.194 101.77 208.045 101.866C207.896 101.962 207.711 102.058 207.816 102.058C207.878 102.058 208.045 102.026 208.388 101.938C210.119 101.826 207.711 100.488 208.098 100.04L207.992 100.008C207.28 100.833 208.467 100.849 207.808 101.689ZM207.087 101.721C207.21 101.721 207.368 101.593 207.535 101.233C207.764 100.985 207.667 100.953 207.421 100.833C206.744 100.993 206.806 101.721 207.087 101.721ZM213.151 104.26C213.125 104.26 213.107 104.268 213.09 104.276C213.16 104.292 213.23 104.308 213.301 104.308C213.23 104.276 213.187 104.26 213.151 104.26ZM224.955 106.254C225.104 106.55 225.184 106.67 225.192 106.67C225.254 106.67 224.085 104.076 223.602 103.611C221.079 99.8316 216.931 96.9408 212.202 95.8598H212.193C212.07 95.8598 212.211 95.9158 212.378 95.9719C212.545 96.0279 212.747 96.084 212.747 96.084C212.747 96.084 212.615 96.0439 212.211 95.9398C211.763 95.8197 211.306 95.7316 210.84 95.6996C210.761 95.7236 212.765 96.4443 214.109 96.8207C213.661 96.6926 213.195 96.5805 213.081 96.5805C213.002 96.5805 213.081 96.6285 213.406 96.7566C213.011 96.6525 212.844 96.6045 212.826 96.6045C212.8 96.6045 213.354 96.7727 213.872 96.9408C214.399 97.109 214.9 97.2771 214.76 97.2771C214.725 97.2771 214.628 97.2611 214.479 97.2371C214.927 97.4613 215.085 97.5494 215.059 97.5494C215.015 97.5494 214.461 97.3092 213.89 97.0689C213.327 96.8287 212.756 96.5885 212.677 96.5885C212.633 96.5885 212.747 96.6686 213.134 96.8768C213.661 97.085 214.188 97.2932 214.039 97.2932C213.969 97.2932 213.767 97.2531 213.371 97.149C214.25 97.5574 212.747 97.3973 213.257 97.9498C212.976 97.7096 212.861 97.6295 212.835 97.6295C212.809 97.6295 212.879 97.7256 212.949 97.8217C213.02 97.9178 213.072 98.0139 213.011 98.0139C213.002 98.0139 213.002 98.0139 212.993 98.0139C213.608 98.6225 212.562 98.0779 213.31 98.6225C212.747 98.3902 211.789 98.0059 212.22 98.0059C212.325 98.0059 212.527 98.0299 212.844 98.0939C212.272 97.4854 210.655 97.4613 210.62 97.3893C210.216 97.4133 210.207 97.6936 210.277 98.2061C210.269 99.0148 209.398 99.0309 209.513 99.4953C209.513 99.4873 209.521 99.4873 209.521 99.4873C209.539 99.4873 209.548 99.6475 209.601 99.8156C209.662 99.9758 209.768 100.144 209.996 100.144C210.119 100.144 210.277 100.096 210.471 99.9758C210.743 100.424 210.989 100.584 211.183 100.584C211.473 100.584 211.648 100.224 211.631 99.8957C211.314 99.7355 210.901 98.4062 211.358 98.4062C211.429 98.4062 211.517 98.4383 211.631 98.5104C210.919 100.104 214.443 99.0389 212.448 99.7676C212.896 100.304 212.167 100.28 212.378 100.929C212.035 101.017 211.657 101.097 211.323 101.097C210.831 101.097 210.453 100.905 210.497 100.232C209.882 100.528 211.112 101.529 209.891 101.529H209.82C209.231 102.514 207.025 102.178 208.757 103.219C208.854 103.675 208.537 103.755 208.133 103.755C208.027 103.755 207.913 103.747 207.799 103.739C207.685 103.731 207.57 103.731 207.465 103.731C207.008 103.731 206.683 103.836 206.964 104.484C206.762 105.157 207.236 105.453 207.816 105.453C208.52 105.453 209.381 105.037 209.442 104.348C209.82 103.828 210.304 103.611 210.805 103.611C211.596 103.611 212.431 104.156 212.976 104.829C213.02 104.893 213.055 104.917 213.072 104.917C213.116 104.917 213.072 104.756 213.055 104.596C213.037 104.468 213.037 104.34 213.09 104.3C212.308 104.1 211.71 103.235 211.974 103.235C212.062 103.235 212.246 103.331 212.545 103.587C212.562 103.587 212.58 103.587 212.589 103.587C213.081 103.587 213.468 103.94 213.767 104.292C214.074 104.644 214.303 104.997 214.505 104.997C214.584 104.997 214.663 104.933 214.733 104.788C214.698 104.74 214.61 104.604 214.566 104.468C214.514 104.3 214.514 104.132 214.751 104.132C214.848 104.132 214.979 104.164 215.164 104.228C215.762 104.084 214.786 102.666 215.577 102.666C215.656 102.666 215.753 102.682 215.876 102.714C215.867 102.963 215.99 103.051 216.104 103.051C216.333 103.051 216.562 102.754 216.008 102.666C216.219 102.482 216.342 102.41 216.43 102.41C216.737 102.41 216.491 103.339 217.555 103.339C217.915 104.116 214.426 103.395 215.542 104.885C215.797 105.053 216.113 105.085 216.421 105.085C216.518 105.085 216.605 105.085 216.693 105.077C216.781 105.077 216.869 105.069 216.948 105.069C217.493 105.069 217.88 105.189 217.643 106.214C217.353 106.406 217.027 106.47 216.693 106.47C216.395 106.47 216.096 106.422 215.806 106.374C215.516 106.326 215.234 106.278 214.979 106.278C214.584 106.278 214.268 106.398 214.074 106.814C213.046 106.43 211.692 106.414 211.824 105.253C210.031 105.485 208.159 105.365 206.841 106.366C206.762 107.831 204.002 108.304 204.67 109.97C203.87 111.507 205.637 113.661 207.438 113.661C207.5 113.661 207.57 113.661 207.632 113.653C208.616 113.645 209.609 113.245 210.479 113.245C210.928 113.245 211.332 113.349 211.684 113.669C211.763 113.661 211.833 113.653 211.895 113.653C213.239 113.653 211.464 115.599 213.072 115.927C214.531 117.305 212.176 118.722 213.327 120.043C213.45 121.076 214.013 121.941 214.013 122.95C214.162 122.966 214.303 122.974 214.452 122.974C216.307 122.974 217.467 121.501 218.557 120.388C218.223 118.722 221.149 118.394 220.147 116.528C219.682 114.486 222.354 113.277 222.204 111.235C222.23 110.946 222.143 110.858 222.011 110.858C221.879 110.858 221.686 110.946 221.501 111.027C221.308 111.115 221.097 111.195 220.93 111.195C220.71 111.195 220.543 111.059 220.525 110.61C219.233 109.513 218.645 108.024 217.44 106.814C219.005 107.503 219.893 109.057 220.613 110.466C220.675 110.482 220.736 110.49 220.807 110.49C222.081 110.49 223.856 107.711 221.923 107.039C221.817 107.303 221.677 107.399 221.51 107.399C221.22 107.399 220.886 107.079 220.648 106.766C220.411 106.446 220.288 106.126 220.42 106.126C220.508 106.126 220.701 106.254 221.035 106.59C221.413 106.806 221.782 106.863 222.169 106.863C222.547 106.863 222.934 106.806 223.338 106.774C223.848 106.959 224.067 107.551 224.226 107.551C224.252 107.551 224.287 107.527 224.313 107.471C224.718 108.352 225.184 109.921 225.605 110.346C225.386 109.001 225.333 107.575 224.955 106.254ZM220.051 104.404C219.058 104.172 218.732 103.051 217.95 102.402C217.941 102.226 218.231 102.258 218.161 101.962C219.216 102.258 218.873 102.554 218.776 102.61C219.163 103.195 220.244 103.595 220.051 104.404ZM206.401 98.3102C205.443 98.5664 205.312 98.2861 205.479 98.8227C205.549 98.8707 205.681 98.8867 205.812 98.8867C206.278 98.8947 206.911 98.6465 206.401 98.3102ZM220.473 120.372C221.729 119.403 221.888 118.25 221.949 117.08C221.387 118.081 219.717 119.187 220.473 120.372ZM214.751 104.756C214.742 104.764 214.742 104.764 214.742 104.772C214.751 104.788 214.76 104.788 214.76 104.788C214.76 104.788 214.76 104.78 214.751 104.756ZM207.5 92C195.072 92 185 101.177 185 112.5C185 123.823 195.072 133 207.5 133C219.928 133 230 123.823 230 112.5C230 101.177 219.928 92 207.5 92ZM207.5 131.422C196.03 131.422 186.731 122.95 186.731 112.5C186.731 102.05 196.03 93.5775 207.5 93.5775C218.97 93.5775 228.269 102.05 228.269 112.5C228.269 122.95 218.97 131.422 207.5 131.422Z" fill="white"/>
<rect x="127.13" y="200.94" width="70" height="8" fill="#E5E5E5"/>
<rect x="127.13" y="200.94" width="70" height="8" fill="black" fill-opacity="0.2"/>
<g filter="url(#filter1_dd_216_126)">
<rect x="127.13" y="172.44" width="70" height="57" rx="28.5" fill="#E5E5E5"/>
</g>
<g clip-path="url(#clip2_216_126)">
<path fill-rule="evenodd" clip-rule="evenodd" d="M162.003 188.478C158.075 188.478 154.89 191.464 154.89 195.147V197.423C154.89 197.479 154.891 197.534 154.892 197.589H154.835C152.984 197.589 151.483 199.09 151.483 200.941V209.882C151.483 211.733 152.984 213.233 154.835 213.233H169.175C171.026 213.233 172.527 211.733 172.527 209.882V200.941C172.527 199.09 171.026 197.589 169.175 197.589H169.114C169.115 197.534 169.116 197.479 169.116 197.423V195.147C169.116 191.464 165.931 188.478 162.003 188.478ZM165.611 197.589C165.614 197.534 165.615 197.479 165.615 197.423V195.147C165.615 193.277 163.998 191.76 162.003 191.76C160.008 191.76 158.391 193.277 158.391 195.147V197.423C158.391 197.479 158.392 197.534 158.395 197.589H165.611Z" fill="#AFAFAF"/>
</g>
<g clip-path="url(#clip3_216_126)">
<path opacity="0.3" d="M173 300.81H101C98.7909 300.81 97 302.601 97 304.81V336.81C97 339.019 98.7909 340.81 101 340.81H173C175.209 340.81 177 339.019 177 336.81V304.81C177 302.601 175.209 300.81 173 300.81Z" fill="#AFAFAF"/>
<path d="M105.289 302.547C105.289 297.01 109.777 292.522 115.314 292.522H157.756C163.292 292.522 167.781 297.01 167.781 302.547V329.13C167.781 331.345 165.985 333.14 163.771 333.14H109.299C107.084 333.14 105.289 331.345 105.289 329.13V302.547Z" fill="#9A9A9A"/>
<path d="M103.122 288.037C103.122 282.501 107.61 278.013 113.147 278.013H160.263C165.799 278.013 170.288 282.501 170.288 288.037V317.861H103.122V288.037Z" fill="#9A9A9A"/>
<path d="M173.918 305.582H100.109V317.11H173.918V305.582Z" fill="#D8D8D8"/>
<path d="M164.021 288.287H171.917C173.025 288.287 173.922 289.185 173.922 290.292V308.587H164.021V288.287Z" fill="#D8D8D8"/>
<path d="M100.109 290.292C100.109 289.185 101.007 288.287 102.114 288.287H108.507C109.614 288.287 110.512 289.185 110.512 290.292V306.582C110.512 307.689 109.614 308.587 108.507 308.587H102.114C101.007 308.587 100.109 307.689 100.109 306.582V290.292Z" fill="#D8D8D8"/>
<path d="M103.122 276.815C103.122 275.708 104.02 274.81 105.127 274.81H115.653C116.76 274.81 117.658 275.708 117.658 276.815V297.313H103.122V276.815Z" fill="#D8D8D8"/>
<path d="M155.752 276.815C155.752 275.708 156.65 274.81 157.757 274.81H168.283C169.391 274.81 170.288 275.708 170.288 276.815V297.313H155.752V276.815Z" fill="#D8D8D8"/>
<path d="M103.254 286.955L117.602 283.382V296.032L103.254 295.856V286.955Z" fill="#EDEDED"/>
<path d="M103.122 294.535H117.658V309.03H103.122V294.535Z" fill="#BFBFBF"/>
<path d="M103.122 315.354C103.122 314.246 104.02 313.349 105.127 313.349H115.653C116.76 313.349 117.658 314.246 117.658 315.354V333.2C117.658 334.308 116.76 335.205 115.653 335.205H105.127C104.02 335.205 103.122 334.308 103.122 333.2V315.354Z" fill="#BFBFBF"/>
<path d="M154.435 315.354C154.435 314.246 155.332 313.349 156.44 313.349H166.965C168.073 313.349 168.97 314.246 168.97 315.354V333.2C168.97 334.308 168.073 335.205 166.965 335.205H156.44C155.332 335.205 154.435 334.308 154.435 333.2V315.354Z" fill="#BFBFBF"/>
<path d="M170.288 294.535H155.752V309.03H170.288V294.535Z" fill="#BFBFBF"/>
<path d="M139.462 312.723H133.949V322.434H139.462V312.723Z" fill="#C4C4C4"/>
<path d="M117.658 318.118H103.122V323.005H117.658V318.118Z" fill="#9A9A9A"/>
<path d="M168.97 318.118H154.435V323.005H168.97V318.118Z" fill="#9A9A9A"/>
<path d="M154.432 326.628H117.653V329.259H154.432V326.628Z" fill="#898989"/>
<path d="M155.747 286.449H117.653V289.081H155.747V286.449Z" fill="#898989"/>
<path opacity="0.92" d="M154.432 318.118H117.653V323.005H154.432V318.118Z" fill="#888888"/>
<path opacity="0.92" d="M155.747 298.115H117.653V305.58H155.747V298.115Z" fill="#898989"/>
<path d="M100.109 309.026H173.918V318.111C173.918 319.218 173.021 320.116 171.913 320.116H102.114C101.007 320.116 100.109 319.218 100.109 318.111V309.026Z" fill="#BFBFBF"/>
<path d="M143.844 301.193H128.933C127.272 301.193 125.925 302.539 125.925 304.2V316.386C125.925 318.047 127.272 319.394 128.933 319.394H143.844C145.505 319.394 146.852 318.047 146.852 316.386V304.2C146.852 302.539 145.505 301.193 143.844 301.193Z" fill="#D8D8D8"/>
<path d="M130.601 301.193H128.933C127.272 301.193 125.925 302.539 125.925 304.2V316.386C125.925 318.047 127.272 319.394 128.933 319.394H129.937C130.462 319.394 130.885 318.962 130.873 318.436L130.601 305.783V301.193Z" fill="#EDEDED"/>
<path d="M143.844 305.673H128.933C127.272 305.673 125.925 307.02 125.925 308.68V320.606C125.925 322.267 127.272 323.614 128.933 323.614H143.844C145.505 323.614 146.852 322.267 146.852 320.606V308.68C146.852 307.02 145.505 305.673 143.844 305.673Z" fill="#BFBFBF"/>
<path d="M136.043 316.06C138.223 316.06 139.991 314.473 139.991 312.516C139.991 310.558 138.223 308.971 136.043 308.971C133.863 308.971 132.096 310.558 132.096 312.516C132.096 314.473 133.863 316.06 136.043 316.06Z" fill="#8A8A8A"/>
<path d="M135.147 314.413C135.516 313.674 136.571 313.674 136.94 314.413L138.737 318.006C139.07 318.672 138.585 319.456 137.84 319.456H134.247C133.502 319.456 133.017 318.672 133.351 318.006L135.147 314.413Z" fill="#8A8A8A"/>
<path d="M155.786 279.195L170.256 275.703V283.668L155.786 287.16V279.195Z" fill="#EDEDED"/>
<path d="M125.927 305.168H117.485V308.971H125.927V305.168Z" fill="#EDEDED"/>
</g>
<rect x="127.13" y="396.69" width="70" height="8" fill="#E5E5E5"/>
<rect x="127.13" y="396.69" width="70" height="8" fill="black" fill-opacity="0.2"/>
<g filter="url(#filter2_dd_216_126)">
<rect x="127.13" y="368.19" width="70" height="57" rx="28.5" fill="#E5E5E5"/>
</g>
<g clip-path="url(#clip4_216_126)">
<g clip-path="url(#clip5_216_126)">
<path d="M183.13 388.182C183.13 386.18 181.463 384.557 179.407 384.557H171.066C165.582 384.557 161.137 388.885 161.137 394.225V411.53C161.137 412.197 161.699 412.754 162.378 412.665C166.259 412.16 164.834 409.208 171.562 409.208C173.434 409.208 177.241 409.208 179.408 409.208C181.464 409.208 183.13 407.584 183.13 405.582V388.182Z" fill="#AFAFAF"/>
<path d="M141.13 388.182C141.13 386.18 142.797 384.557 144.853 384.557H153.194C158.678 384.557 163.123 388.885 163.123 394.225V411.53C163.123 412.197 162.561 412.749 161.879 412.685C157.1 412.233 159.529 409.08 152.697 409.08C150.826 409.08 147.019 409.08 144.852 409.08C142.796 409.08 141.13 407.457 141.13 405.455V388.182Z" fill="#AFAFAF"/>
<path d="M178.017 383.591C178.017 381.989 176.683 380.69 175.038 380.69H169.08C164.693 380.69 161.137 384.153 161.137 388.424V405.826C161.137 406.36 161.589 406.812 162.125 406.698C164.478 406.198 164.266 403.893 169.577 403.893C171.102 403.893 173.278 403.893 175.039 403.893C176.684 403.893 178.017 402.594 178.017 400.993V383.591Z" fill="#D8D8D8"/>
<path d="M146.243 383.591C146.243 381.989 147.577 380.69 149.222 380.69H155.18C159.567 380.69 163.123 384.153 163.123 388.424V405.826C163.123 406.36 162.675 406.808 162.134 406.721C159.366 406.272 160.078 403.893 154.683 403.893C153.158 403.893 150.981 403.893 149.221 403.893C147.576 403.893 146.243 402.594 146.243 400.993V383.591Z" fill="#D8D8D8"/>
<path opacity="0.4" fill-rule="evenodd" clip-rule="evenodd" d="M160.641 382.809C161.23 383.352 161.733 383.982 162.129 384.677C162.526 383.981 163.03 383.35 163.62 382.807V405.986C163.396 406.154 163.163 406.309 162.899 406.436C162.716 406.648 162.44 406.771 162.133 406.721C162.11 406.717 162.086 406.713 162.063 406.709C161.857 406.736 161.667 406.681 161.512 406.572C161.172 406.461 160.892 406.313 160.641 406.145V382.809Z" fill="#AFAFAF"/>
</g>
</g>
<rect x="172" y="473.53" width="70" height="8" fill="#E5E5E5"/>
<rect x="172" y="473.53" width="70" height="8" fill="black" fill-opacity="0.2"/>
<g filter="url(#filter3_dd_216_126)">
<rect x="172" y="445.03" width="70" height="57" rx="28.5" fill="#E5E5E5"/>
</g>
<g clip-path="url(#clip6_216_126)">
<g clip-path="url(#clip7_216_126)">
<path fill-rule="evenodd" clip-rule="evenodd" d="M200.087 457.186C197.241 455.963 193.972 458.034 193.972 461.192V469.939C193.972 476.34 198.355 481.694 204.218 483.033C205.229 483.413 205.539 483.924 205.579 484.331V484.42V484.426V484.506C205.569 484.758 205.459 485.1 205.154 485.377H201.941C201.153 485.377 200.514 486.016 200.514 486.804C200.514 486.965 200.54 487.119 200.589 487.263H199.018C198.227 487.263 197.586 487.905 197.586 488.696C197.586 489.487 198.227 490.128 199.018 490.128H214.76C215.551 490.128 216.193 489.487 216.193 488.696C216.193 487.905 215.551 487.263 214.76 487.263H213.462C213.51 487.119 213.537 486.965 213.537 486.804C213.537 486.016 212.898 485.377 212.11 485.377H208.851C208.569 485.154 208.424 484.88 208.368 484.643V484.361C208.446 483.903 208.877 483.335 210.227 482.967C215.953 481.528 220.201 476.241 220.201 469.939V461.192C220.201 458.034 216.932 455.963 214.086 457.186C211.433 458.327 208.592 459.372 207.086 459.372C205.581 459.372 202.74 458.327 200.087 457.186ZM190.35 472.905C188.622 471.996 187.682 469.978 188.2 468.019C188.307 467.616 188.719 467.379 189.12 467.49L189.26 467.529C190.46 467.861 191.402 468.68 191.93 469.714C192.278 469.917 192.51 470.296 192.503 470.728C192.486 471.73 192.651 473.437 193.209 475.178C193.769 476.927 194.686 478.586 196.086 479.652C196.591 480.037 196.689 480.758 196.304 481.263C196.22 481.375 196.119 481.466 196.008 481.537C195.056 483.374 192.866 484.23 190.887 483.458C190.506 483.309 190.313 482.878 190.456 482.494L190.571 482.186C191.007 481.016 191.911 480.167 192.988 479.77C192.68 479.368 192.404 478.946 192.159 478.515C190.261 478.871 188.321 477.866 187.557 475.998C187.399 475.614 187.581 475.169 187.964 475.005L188.114 474.941C188.963 474.577 189.86 474.515 190.689 474.706C190.538 474.08 190.427 473.472 190.35 472.905ZM221.615 469.776C221.321 469.988 221.132 470.337 221.138 470.728C221.154 471.73 220.99 473.437 220.432 475.178C219.872 476.927 218.955 478.586 217.555 479.652C217.05 480.037 216.952 480.758 217.336 481.263C217.435 481.393 217.556 481.496 217.69 481.571C218.65 483.385 220.825 484.226 222.792 483.458C223.174 483.309 223.367 482.878 223.224 482.494L223.108 482.186C222.668 481.005 221.752 480.151 220.661 479.759C220.979 479.343 221.261 478.907 221.512 478.461C223.486 478.956 225.562 477.947 226.36 475.998C226.517 475.614 226.335 475.169 225.953 475.005L225.803 474.941C224.852 474.533 223.841 474.504 222.932 474.786C223.1 474.106 223.219 473.445 223.3 472.833C225.04 471.867 225.927 469.773 225.314 467.807C225.189 467.409 224.768 467.192 224.372 467.321L224.229 467.368C223.007 467.767 222.084 468.671 221.615 469.776Z" fill="#AFAFAF"/>
</g>
</g>
<defs>
<filter id="filter0_dd_216_126" x="172" y="81.59" width="70" height="65" filterUnits="userSpaceOnUse" color-interpolation-filters="sRGB">
<feFlood flood-opacity="0" result="BackgroundImageFix"/>
<feColorMatrix in="SourceAlpha" type="matrix" values="0 0 0 0 0 0 0 0 0 0 0 0 0 0 0 0 0 0 127 0" result="hardAlpha"/>
<feOffset dy="8"/>
<feComposite in2="hardAlpha" operator="out"/>
<feColorMatrix type="matrix" values="0 0 0 0 0.290196 0 0 0 0 0.564706 0 0 0 0 0.886275 0 0 0 1 0"/>
<feBlend mode="normal" in2="BackgroundImageFix" result="effect1_dropShadow_216_126"/>
<feColorMatrix in="SourceAlpha" type="matrix" values="0 0 0 0 0 0 0 0 0 0 0 0 0 0 0 0 0 0 127 0" result="hardAlpha"/>
<feOffset dy="8"/>
<feComposite in2="hardAlpha" operator="out"/>
<feColorMatrix type="matrix" values="0 0 0 0 0 0 0 0 0 0 0 0 0 0 0 0 0 0 0.2 0"/>
<feBlend mode="normal" in2="effect1_dropShadow_216_126" result="effect2_dropShadow_216_126"/>
<feBlend mode="normal" in="SourceGraphic" in2="effect2_dropShadow_216_126" result="shape"/>
</filter>
<filter id="filter1_dd_216_126" x="127.13" y="172.44" width="70" height="65" filterUnits="userSpaceOnUse" color-interpolation-filters="sRGB">
<feFlood flood-opacity="0" result="BackgroundImageFix"/>
<feColorMatrix in="SourceAlpha" type="matrix" values="0 0 0 0 0 0 0 0 0 0 0 0 0 0 0 0 0 0 127 0" result="hardAlpha"/>
<feOffset dy="8"/>
<feComposite in2="hardAlpha" operator="out"/>
<feColorMatrix type="matrix" values="0 0 0 0 0.898039 0 0 0 0 0.898039 0 0 0 0 0.898039 0 0 0 1 0"/>
<feBlend mode="normal" in2="BackgroundImageFix" result="effect1_dropShadow_216_126"/>
<feColorMatrix in="SourceAlpha" type="matrix" values="0 0 0 0 0 0 0 0 0 0 0 0 0 0 0 0 0 0 127 0" result="hardAlpha"/>
<feOffset dy="8"/>
<feComposite in2="hardAlpha" operator="out"/>
<feColorMatrix type="matrix" values="0 0 0 0 0 0 0 0 0 0 0 0 0 0 0 0 0 0 0.2 0"/>
<feBlend mode="normal" in2="effect1_dropShadow_216_126" result="effect2_dropShadow_216_126"/>
<feBlend mode="normal" in="SourceGraphic" in2="effect2_dropShadow_216_126" result="shape"/>
</filter>
<filter id="filter2_dd_216_126" x="127.13" y="368.19" width="70" height="65" filterUnits="userSpaceOnUse" color-interpolation-filters="sRGB">
<feFlood flood-opacity="0" result="BackgroundImageFix"/>
<feColorMatrix in="SourceAlpha" type="matrix" values="0 0 0 0 0 0 0 0 0 0 0 0 0 0 0 0 0 0 127 0" result="hardAlpha"/>
<feOffset dy="8"/>
<feComposite in2="hardAlpha" operator="out"/>
<feColorMatrix type="matrix" values="0 0 0 0 0.898039 0 0 0 0 0.898039 0 0 0 0 0.898039 0 0 0 1 0"/>
<feBlend mode="normal" in2="BackgroundImageFix" result="effect1_dropShadow_216_126"/>
<feColorMatrix in="SourceAlpha" type="matrix" values="0 0 0 0 0 0 0 0 0 0 0 0 0 0 0 0 0 0 127 0" result="hardAlpha"/>
<feOffset dy="8"/>
<feComposite in2="hardAlpha" operator="out"/>
<feColorMatrix type="matrix" values="0 0 0 0 0 0 0 0 0 0 0 0 0 0 0 0 0 0 0.2 0"/>
<feBlend mode="normal" in2="effect1_dropShadow_216_126" result="effect2_dropShadow_216_126"/>
<feBlend mode="normal" in="SourceGraphic" in2="effect2_dropShadow_216_126" result="shape"/>
</filter>
<filter id="filter3_dd_216_126" x="172" y="445.03" width="70" height="65" filterUnits="userSpaceOnUse" color-interpolation-filters="sRGB">
<feFlood flood-opacity="0" result="BackgroundImageFix"/>
<feColorMatrix in="SourceAlpha" type="matrix" values="0 0 0 0 0 0 0 0 0 0 0 0 0 0 0 0 0 0 127 0" result="hardAlpha"/>
<feOffset dy="8"/>
<feComposite in2="hardAlpha" operator="out"/>
<feColorMatrix type="matrix" values="0 0 0 0 0.898039 0 0 0 0 0.898039 0 0 0 0 0.898039 0 0 0 1 0"/>
<feBlend mode="normal" in2="BackgroundImageFix" result="effect1_dropShadow_216_126"/>
<feColorMatrix in="SourceAlpha" type="matrix" values="0 0 0 0 0 0 0 0 0 0 0 0 0 0 0 0 0 0 127 0" result="hardAlpha"/>
<feOffset dy="8"/>
<feComposite in2="hardAlpha" operator="out"/>
<feColorMatrix type="matrix" values="0 0 0 0 0 0 0 0 0 0 0 0 0 0 0 0 0 0 0.2 0"/>
<feBlend mode="normal" in2="effect1_dropShadow_216_126" result="effect2_dropShadow_216_126"/>
<feBlend mode="normal" in="SourceGraphic" in2="effect2_dropShadow_216_126" result="shape"/>
</filter>
<clipPath id="clip0_216_126">
<rect width="98" height="92.71" fill="white" transform="translate(158 67.74)"/>
</clipPath>
<clipPath id="clip1_216_126">
<rect width="20" height="10" fill="white" transform="matrix(-1 0 0 -1 216.99 88.65)"/>
</clipPath>
<clipPath id="clip2_216_126">
<rect width="42" height="34" fill="white" transform="translate(141.13 183.94)"/>
</clipPath>
<clipPath id="clip3_216_126">
<rect width="80" height="90" fill="white" transform="translate(97 262.81)"/>
</clipPath>
<clipPath id="clip4_216_126">
<rect width="42" height="34" fill="white" transform="translate(141.13 379.69)"/>
</clipPath>
<clipPath id="clip5_216_126">
<rect width="42" height="34" fill="white" transform="translate(141.13 379.69)"/>
</clipPath>
<clipPath id="clip6_216_126">
<rect width="42" height="34" fill="white" transform="translate(186 456.53)"/>
</clipPath>
<clipPath id="clip7_216_126">
<rect width="42" height="34" fill="white" transform="translate(186 456.53)"/>
</clipPath>
</defs>
</svg>
