<svg width="361" height="361" viewBox="0 0 361 361" fill="none" xmlns="http://www.w3.org/2000/svg">
<g clip-path="url(#clip0_1_896)">
<path d="M180.344 360.5C279.755 360.5 360.344 279.911 360.344 180.5C360.344 81.0887 279.755 0.5 180.344 0.5C80.9324 0.5 0.34375 81.0887 0.34375 180.5C0.34375 279.911 80.9324 360.5 180.344 360.5Z" fill="#24D4DE" fill-opacity="0.04"/>
<path d="M181.016 332.032C264.42 332.032 332.032 264.42 332.032 181.016C332.032 97.6122 264.42 30 181.016 30C97.6122 30 30 97.6122 30 181.016C30 264.42 97.6122 332.032 181.016 332.032Z" fill="#24D4DE" fill-opacity="0.06"/>
<path d="M180.822 307.074C250.463 307.074 306.919 250.619 306.919 180.978C306.919 111.336 250.463 54.8807 180.822 54.8807C111.18 54.8807 54.7244 111.336 54.7244 180.978C54.7244 250.619 111.18 307.074 180.822 307.074Z" fill="#49C0F8"/>
<path opacity="0.732096" fill-rule="evenodd" clip-rule="evenodd" d="M225.313 257.355C213.908 237.601 220.675 212.341 240.43 200.936C258.652 190.415 281.559 195.359 293.954 211.694L293.954 236C285 259.5 255.5 284.5 248 287.5L245 289.5C242.439 286.964 241.67 285.688 239.781 282.416L225.313 257.355Z" fill="#FFD700"/>
<path opacity="0.732096" fill-rule="evenodd" clip-rule="evenodd" d="M226.754 151C224.755 153 183.068 136.53 179.5 114C176.208 93.2181 202.894 55.5313 228.754 64.3325C241 68.5001 262.254 84.3325 262.254 84.3325L274.754 96.3325L284.754 108.832C284.754 108.832 288.198 114.276 288.254 114.332C288.311 114.389 295.254 129 298.754 139C302.254 149 228.754 149 226.754 151Z" fill="#D95F43"/>
<path opacity="0.732096" fill-rule="evenodd" clip-rule="evenodd" d="M162.934 91.7973C162.934 111.999 148.429 128.814 129.266 132.395L128.685 132.499L128.726 132.796C128.963 134.588 129.086 136.416 129.086 138.273C129.086 161.083 110.594 179.574 87.7839 179.574H58.8465C57.5198 179.574 56.2077 179.512 54.913 179.389L54.9103 179.388C55.6178 122.117 94.5049 74.0405 147.295 59.4344L147.297 59.436C156.824 67.002 162.934 78.6862 162.934 91.7973Z" fill="#6C7A89"/>
<path opacity="0.732096" fill-rule="evenodd" clip-rule="evenodd" d="M107.28 284.195C86.0406 269.463 69.7205 248.451 60.7345 224.14L80.0165 226.165C84.3577 216.001 94.9441 209.395 106.511 210.611L119.418 211.968C133.627 213.461 143.935 226.189 142.442 240.398C141.006 254.061 129.18 264.117 115.639 263.541C115.608 264.051 115.565 264.563 115.511 265.077C114.744 272.38 111.783 278.92 107.35 284.113L107.28 284.195Z" fill="#2E8B57"/>
<path fill-rule="evenodd" clip-rule="evenodd" d="M97.644 108.499C90.506 108.499 84.411 104.034 82 97.745C89.78 88.985 98.763 81.317 108.689 75L146.75 75.002C156 75.002 163.499 82.501 163.499 91.751C163.499 101.001 156 108.499 146.75 108.499L97.644 108.499Z" fill="#BBF3F6"/>
<path d="M113.742 149.251H93.749C84.499 149.251 77 156.75 77 166C77 175.249 84.499 182.748 93.749 182.748H113.742C122.992 182.748 130.491 175.249 130.491 166C130.491 156.75 122.992 149.251 113.742 149.251Z" fill="#AEEBEE"/>
<path fill-rule="evenodd" clip-rule="evenodd" d="M305.395 197.101L296.716 204.382C289.63 210.328 279.065 209.404 273.119 202.318C271.662 200.581 270.618 198.635 269.975 196.599L265.848 200.064C258.762 206.009 248.197 205.085 242.252 197.999C236.306 190.913 237.23 180.348 244.316 174.403L259.632 161.551C266.717 155.606 292.743 151.914 298.689 159C300.146 160.737 298.046 159.515 298.689 161.551L303.945 154.59C306.809 168.486 307.292 182.726 305.452 196.679L305.395 197.101Z" fill="#A7E3E7"/>
</g>
<defs>
<clipPath id="clip0_1_896">
<rect width="360" height="360" fill="white" transform="translate(0.34375 0.5)"/>
</clipPath>
</defs>
</svg>
